<svg width="128" height="128" viewBox="0 0 128 128" fill="none" xmlns="http://www.w3.org/2000/svg">
  <path fill-rule="evenodd" clip-rule="evenodd" d="M20 108V44C20 19.6995 39.6995 0 64 0H68C92.3005 0 112 19.6995 112 44V108H20ZM50 108V46C50 35.5066 58.5066 27 69 27H69.5C79.7175 27 88 35.2825 88 45.5V108H50Z" fill="#E25D47"/>
  <path d="M36 108V46C36 28.8792 49.8792 15 67 15" stroke="#F38A77" stroke-width="6" stroke-linecap="round"/>
  <path d="M64 108V59C64 48.5066 72.5066 40 83 40H88V108H64Z" fill="#C84333"/>
  <path d="M92 45C92 35.6112 84.3888 28 75 28" stroke="#F38A77" stroke-width="5" stroke-linecap="round"/>
</svg>
